<svg width="17" height="18" viewBox="0 0 17 18" fill="none" xmlns="http://www.w3.org/2000/svg">
<g clip-path="url(#clip0_195_2749)">
<path d="M5.34803 15.6356C11.7615 15.6356 15.2704 10.2468 15.2704 5.57518C15.2704 5.42369 15.2671 5.26883 15.2605 5.11734C15.9431 4.61684 16.5321 3.9969 17 3.28664C16.3643 3.57342 15.6893 3.76071 14.9982 3.84211C15.7259 3.39984 16.2708 2.70504 16.5318 1.88652C15.8472 2.29789 15.0985 2.58808 14.3179 2.74464C13.7918 2.17796 13.0964 1.80275 12.3389 1.67702C11.5815 1.55129 10.8043 1.68205 10.1276 2.04907C9.45079 2.4161 8.91211 2.99895 8.59481 3.70751C8.27751 4.41607 8.19926 5.21088 8.37217 5.96906C6.98593 5.89853 5.62979 5.53341 4.39165 4.89738C3.15352 4.26136 2.06103 3.36862 1.18502 2.27704C0.739783 3.05535 0.60354 3.97635 0.80398 4.85285C1.00442 5.72936 1.5265 6.49559 2.26412 6.99583C1.71036 6.97801 1.16873 6.82684 0.683984 6.55482V6.59859C0.683488 7.41537 0.961986 8.20712 1.47214 8.83925C1.98229 9.47139 2.6926 9.90489 3.48234 10.0661C2.96937 10.2084 2.43099 10.2291 1.90885 10.1267C2.1317 10.8291 2.56528 11.4435 3.14909 11.884C3.73289 12.3246 4.43779 12.5694 5.16541 12.5842C3.93013 13.568 2.40421 14.1016 0.833398 14.0991C0.554828 14.0987 0.276533 14.0814 0 14.0473C1.59577 15.0853 3.45208 15.6366 5.34803 15.6356Z" fill="#3B3B3B"/>
</g>
<defs>
<clipPath id="clip0_195_2749">
<rect width="17" height="17.2364" fill="white" transform="translate(0 0.0150757)"/>
</clipPath>
</defs>
</svg>
