<svg width="45" height="45" viewBox="0 0 45 45" fill="none" xmlns="http://www.w3.org/2000/svg">
<path d="M22.0833 14.7916C23.4201 14.7916 24.5139 15.8854 24.5139 17.2222C24.5139 18.559 23.4201 19.6528 22.0833 19.6528C20.7465 19.6528 19.6528 18.559 19.6528 17.2222C19.6528 15.8854 20.7465 14.7916 22.0833 14.7916ZM22.0833 26.9444C25.3646 26.9444 29.1319 28.5121 29.375 29.375H14.7916C15.0712 28.5 18.8142 26.9444 22.0833 26.9444ZM22.0833 12.3611C19.3975 12.3611 17.2222 14.5364 17.2222 17.2222C17.2222 19.908 19.3975 22.0833 22.0833 22.0833C24.7691 22.0833 26.9444 19.908 26.9444 17.2222C26.9444 14.5364 24.7691 12.3611 22.0833 12.3611ZM22.0833 24.5139C18.8385 24.5139 12.3611 26.1423 12.3611 29.375V31.8055H31.8055V29.375C31.8055 26.1423 25.3281 24.5139 22.0833 24.5139Z" fill="#3B3B3B"/>
<circle cx="22.0833" cy="22.9167" r="13.9167" stroke="#3B3B3B" stroke-width="3"/>
<circle cx="22" cy="17" r="3" fill="#3B3B3B"/>
<circle cx="22" cy="17" r="3" fill="#3B3B3B"/>
<ellipse cx="22" cy="28.5" rx="8" ry="2.5" fill="#3B3B3B"/>
<ellipse cx="22" cy="28.5" rx="8" ry="2.5" fill="#3B3B3B"/>
<ellipse cx="22" cy="32" rx="9" ry="4" fill="#3B3B3B"/>
<ellipse cx="22" cy="32" rx="9" ry="4" fill="#3B3B3B"/>
</svg>
