<svg width="50" height="50" viewBox="0 0 50 50" fill="none" xmlns="http://www.w3.org/2000/svg">
<g clip-path="url(#clip0_257_76)">
<rect width="50" height="50" fill="white"/>
<path d="M12.7596 28.06C12.6476 28.06 12.5656 28.042 12.5136 28.006C12.4616 27.974 12.4296 27.93 12.4176 27.874C12.4056 27.818 12.3996 27.756 12.3996 27.688V24.226C12.3996 24.09 12.4256 23.996 12.4776 23.944C12.5336 23.892 12.6336 23.866 12.7776 23.866H15.1176C15.1856 23.866 15.2456 23.874 15.2976 23.89C15.3536 23.902 15.3976 23.934 15.4296 23.986C15.4616 24.034 15.4776 24.116 15.4776 24.232C15.4776 24.344 15.4596 24.426 15.4236 24.478C15.3916 24.53 15.3476 24.562 15.2916 24.574C15.2396 24.586 15.1796 24.592 15.1116 24.592H13.1256V25.6H14.4936C14.5616 25.6 14.6196 25.608 14.6676 25.624C14.7156 25.636 14.7536 25.664 14.7816 25.708C14.8096 25.752 14.8236 25.826 14.8236 25.93C14.8236 26.03 14.8096 26.104 14.7816 26.152C14.7536 26.196 14.7136 26.224 14.6616 26.236C14.6096 26.244 14.5496 26.248 14.4816 26.248H13.1256V27.328H15.1176C15.1856 27.328 15.2456 27.336 15.2976 27.352C15.3536 27.364 15.3976 27.396 15.4296 27.448C15.4616 27.5 15.4776 27.582 15.4776 27.694C15.4776 27.806 15.4596 27.888 15.4236 27.94C15.3916 27.992 15.3476 28.024 15.2916 28.036C15.2396 28.052 15.1796 28.06 15.1116 28.06H12.7596ZM19.8348 27.55C19.8748 27.626 19.8948 27.694 19.8948 27.754C19.8988 27.81 19.8828 27.86 19.8468 27.904C19.8108 27.944 19.7508 27.986 19.6668 28.03C19.5388 28.09 19.4388 28.106 19.3668 28.078C19.2988 28.05 19.2348 27.972 19.1748 27.844L17.8368 25.018L16.5048 27.844C16.4448 27.968 16.3788 28.042 16.3068 28.066C16.2348 28.094 16.1348 28.08 16.0068 28.024C15.9268 27.984 15.8668 27.942 15.8268 27.898C15.7908 27.854 15.7748 27.802 15.7788 27.742C15.7868 27.678 15.8128 27.602 15.8568 27.514L17.5068 24.076C17.5388 24.012 17.5848 23.962 17.6448 23.926C17.7088 23.886 17.7748 23.866 17.8428 23.866C17.8908 23.866 17.9348 23.874 17.9748 23.89C18.0148 23.906 18.0508 23.93 18.0828 23.962C18.1188 23.994 18.1488 24.034 18.1728 24.082L19.8348 27.55ZM16.7688 26.968L17.0568 26.35H18.6228L18.9108 26.968H16.7688ZM20.6871 28.054C20.5751 28.054 20.4931 28.038 20.4411 28.006C20.3931 27.974 20.3611 27.93 20.3451 27.874C20.3331 27.814 20.3271 27.752 20.3271 27.688V24.226C20.3271 24.162 20.3351 24.104 20.3511 24.052C20.3671 23.996 20.3991 23.952 20.4471 23.92C20.4991 23.884 20.5811 23.866 20.6931 23.866H21.9771C22.1611 23.866 22.3351 23.896 22.4991 23.956C22.6671 24.012 22.8171 24.1 22.9491 24.22C23.0811 24.336 23.1851 24.484 23.2611 24.664C23.3411 24.84 23.3811 25.046 23.3811 25.282C23.3811 25.438 23.3571 25.594 23.3091 25.75C23.2611 25.902 23.1891 26.044 23.0931 26.176C23.0011 26.304 22.8831 26.414 22.7391 26.506C22.5951 26.598 22.4251 26.658 22.2291 26.686H21.0531V27.694C21.0531 27.758 21.0451 27.818 21.0291 27.874C21.0171 27.93 20.9851 27.974 20.9331 28.006C20.8851 28.038 20.8031 28.054 20.6871 28.054ZM23.2431 27.964C23.1271 28.044 23.0311 28.074 22.9551 28.054C22.8831 28.034 22.8111 27.97 22.7391 27.862L21.7311 26.338L22.5411 26.23L23.3391 27.442C23.3951 27.522 23.4291 27.59 23.4411 27.646C23.4531 27.702 23.4431 27.754 23.4111 27.802C23.3791 27.85 23.3231 27.904 23.2431 27.964ZM21.0531 25.966H22.0671C22.1391 25.966 22.2091 25.954 22.2771 25.93C22.3491 25.902 22.4131 25.86 22.4691 25.804C22.5251 25.744 22.5691 25.672 22.6011 25.588C22.6371 25.5 22.6551 25.396 22.6551 25.276C22.6551 25.132 22.6271 25.01 22.5711 24.91C22.5151 24.806 22.4351 24.728 22.3311 24.676C22.2311 24.62 22.1091 24.592 21.9651 24.592H21.0531V25.966ZM24.3361 28.054C24.2281 28.054 24.1481 28.036 24.0961 28C24.0481 27.968 24.0161 27.924 24.0001 27.868C23.9881 27.812 23.9821 27.752 23.9821 27.688V24.208C23.9821 24.148 23.9901 24.092 24.0061 24.04C24.0221 23.988 24.0561 23.946 24.1081 23.914C24.1641 23.882 24.2461 23.866 24.3541 23.866C24.4741 23.866 24.5561 23.88 24.6001 23.908C24.6481 23.932 24.6921 23.968 24.7321 24.016L26.7361 26.818V24.208C26.7361 24.148 26.7441 24.092 26.7601 24.04C26.7761 23.988 26.8101 23.946 26.8621 23.914C26.9141 23.882 26.9941 23.866 27.1021 23.866C27.2141 23.866 27.2941 23.884 27.3421 23.92C27.3941 23.952 27.4261 23.996 27.4381 24.052C27.4541 24.108 27.4621 24.17 27.4621 24.238V27.694C27.4621 27.758 27.4521 27.818 27.4321 27.874C27.4161 27.926 27.3801 27.968 27.3241 28C27.2721 28.036 27.1901 28.054 27.0781 28.054C26.9901 28.054 26.9201 28.046 26.8681 28.03C26.8201 28.014 26.7761 27.98 26.7361 27.928L24.7021 25.132V27.694C24.7021 27.758 24.6941 27.818 24.6781 27.874C24.6661 27.926 24.6341 27.968 24.5821 28C24.5301 28.036 24.4481 28.054 24.3361 28.054ZM28.5079 28.06C28.3959 28.06 28.3139 28.042 28.2619 28.006C28.2099 27.974 28.1779 27.93 28.1659 27.874C28.1539 27.818 28.1479 27.756 28.1479 27.688V24.226C28.1479 24.162 28.1539 24.102 28.1659 24.046C28.1819 23.99 28.2139 23.946 28.2619 23.914C28.3139 23.882 28.3979 23.866 28.5139 23.866C28.6259 23.866 28.7059 23.882 28.7539 23.914C28.8059 23.946 28.8379 23.99 28.8499 24.046C28.8659 24.102 28.8739 24.164 28.8739 24.232V27.694C28.8739 27.762 28.8659 27.824 28.8499 27.88C28.8379 27.932 28.8059 27.974 28.7539 28.006C28.7019 28.042 28.6199 28.06 28.5079 28.06ZM30.4594 28.054C30.3674 28.054 30.2894 28.038 30.2254 28.006C30.1654 27.978 30.1194 27.928 30.0874 27.856L28.5994 24.346C28.5474 24.222 28.5374 24.13 28.5694 24.07C28.6014 24.01 28.6754 23.95 28.7914 23.89C28.8714 23.846 28.9414 23.824 29.0014 23.824C29.0614 23.82 29.1114 23.838 29.1514 23.878C29.1954 23.914 29.2334 23.974 29.2654 24.058L30.4534 27.034L31.6294 24.088C31.6654 24.008 31.7034 23.946 31.7434 23.902C31.7834 23.854 31.8354 23.83 31.8994 23.83C31.9634 23.826 32.0394 23.848 32.1274 23.896C32.2674 23.964 32.3434 24.034 32.3554 24.106C32.3674 24.178 32.3474 24.27 32.2954 24.382L30.8194 27.856C30.7914 27.916 30.7454 27.964 30.6814 28C30.6174 28.036 30.5434 28.054 30.4594 28.054ZM33.3729 28.06C33.2609 28.06 33.1789 28.042 33.1269 28.006C33.0749 27.974 33.0429 27.93 33.0309 27.874C33.0189 27.818 33.0129 27.756 33.0129 27.688V24.226C33.0129 24.09 33.0389 23.996 33.0909 23.944C33.1469 23.892 33.2469 23.866 33.3909 23.866H35.7309C35.7989 23.866 35.8589 23.874 35.9109 23.89C35.9669 23.902 36.0109 23.934 36.0429 23.986C36.0749 24.034 36.0909 24.116 36.0909 24.232C36.0909 24.344 36.0729 24.426 36.0369 24.478C36.0049 24.53 35.9609 24.562 35.9049 24.574C35.8529 24.586 35.7929 24.592 35.7249 24.592H33.7389V25.6H35.1069C35.1749 25.6 35.2329 25.608 35.2809 25.624C35.3289 25.636 35.3669 25.664 35.3949 25.708C35.4229 25.752 35.4369 25.826 35.4369 25.93C35.4369 26.03 35.4229 26.104 35.3949 26.152C35.3669 26.196 35.3269 26.224 35.2749 26.236C35.2229 26.244 35.1629 26.248 35.0949 26.248H33.7389V27.328H35.7309C35.7989 27.328 35.8589 27.336 35.9109 27.352C35.9669 27.364 36.0109 27.396 36.0429 27.448C36.0749 27.5 36.0909 27.582 36.0909 27.694C36.0909 27.806 36.0729 27.888 36.0369 27.94C36.0049 27.992 35.9609 28.024 35.9049 28.036C35.8529 28.052 35.7929 28.06 35.7249 28.06H33.3729ZM37.064 28.054C36.952 28.054 36.87 28.038 36.818 28.006C36.77 27.974 36.738 27.93 36.722 27.874C36.71 27.814 36.704 27.752 36.704 27.688V24.226C36.704 24.162 36.712 24.104 36.728 24.052C36.744 23.996 36.776 23.952 36.824 23.92C36.876 23.884 36.958 23.866 37.07 23.866H38.354C38.538 23.866 38.712 23.896 38.876 23.956C39.044 24.012 39.194 24.1 39.326 24.22C39.458 24.336 39.562 24.484 39.638 24.664C39.718 24.84 39.758 25.046 39.758 25.282C39.758 25.438 39.734 25.594 39.686 25.75C39.638 25.902 39.566 26.044 39.47 26.176C39.378 26.304 39.26 26.414 39.116 26.506C38.972 26.598 38.802 26.658 38.606 26.686H37.43V27.694C37.43 27.758 37.422 27.818 37.406 27.874C37.394 27.93 37.362 27.974 37.31 28.006C37.262 28.038 37.18 28.054 37.064 28.054ZM39.62 27.964C39.504 28.044 39.408 28.074 39.332 28.054C39.26 28.034 39.188 27.97 39.116 27.862L38.108 26.338L38.918 26.23L39.716 27.442C39.772 27.522 39.806 27.59 39.818 27.646C39.83 27.702 39.82 27.754 39.788 27.802C39.756 27.85 39.7 27.904 39.62 27.964ZM37.43 25.966H38.444C38.516 25.966 38.586 25.954 38.654 25.93C38.726 25.902 38.79 25.86 38.846 25.804C38.902 25.744 38.946 25.672 38.978 25.588C39.014 25.5 39.032 25.396 39.032 25.276C39.032 25.132 39.004 25.01 38.948 24.91C38.892 24.806 38.812 24.728 38.708 24.676C38.608 24.62 38.486 24.592 38.342 24.592H37.43V25.966ZM41.6084 28.114C41.4284 28.114 41.2644 28.092 41.1164 28.048C40.9724 28.004 40.8444 27.948 40.7324 27.88C40.6244 27.812 40.5324 27.742 40.4564 27.67C40.3804 27.598 40.3244 27.532 40.2884 27.472C40.2364 27.4 40.2024 27.336 40.1864 27.28C40.1704 27.224 40.1744 27.17 40.1984 27.118C40.2264 27.062 40.2764 27.004 40.3484 26.944C40.4204 26.88 40.4864 26.848 40.5464 26.848C40.6104 26.844 40.6704 26.862 40.7264 26.902C40.7864 26.942 40.8444 26.998 40.9004 27.07C40.9964 27.198 41.1044 27.29 41.2244 27.346C41.3444 27.398 41.4644 27.424 41.5844 27.424C41.7404 27.424 41.8764 27.404 41.9924 27.364C42.1084 27.32 42.1984 27.256 42.2624 27.172C42.3304 27.088 42.3644 26.98 42.3644 26.848C42.3644 26.74 42.3304 26.652 42.2624 26.584C42.1984 26.512 42.1124 26.452 42.0044 26.404C41.8964 26.352 41.7744 26.306 41.6384 26.266C41.5064 26.222 41.3724 26.174 41.2364 26.122C41.1404 26.09 41.0444 26.052 40.9484 26.008C40.8524 25.96 40.7624 25.906 40.6784 25.846C40.5984 25.786 40.5264 25.716 40.4624 25.636C40.4024 25.552 40.3544 25.456 40.3184 25.348C40.2824 25.24 40.2644 25.114 40.2644 24.97C40.2644 24.742 40.3204 24.542 40.4324 24.37C40.5444 24.194 40.7004 24.056 40.9004 23.956C41.1004 23.852 41.3284 23.8 41.5844 23.8C41.7484 23.8 41.8944 23.816 42.0224 23.848C42.1544 23.876 42.2664 23.914 42.3584 23.962C42.4544 24.006 42.5324 24.052 42.5924 24.1C42.6564 24.144 42.7024 24.182 42.7304 24.214C42.8224 24.306 42.8724 24.384 42.8804 24.448C42.8924 24.508 42.8564 24.59 42.7724 24.694C42.6884 24.802 42.6064 24.862 42.5264 24.874C42.4504 24.882 42.3644 24.85 42.2684 24.778C42.2044 24.71 42.1404 24.656 42.0764 24.616C42.0124 24.572 41.9404 24.54 41.8604 24.52C41.7844 24.5 41.6904 24.49 41.5784 24.49C41.4984 24.49 41.4204 24.502 41.3444 24.526C41.2724 24.546 41.2104 24.578 41.1584 24.622C41.1064 24.662 41.0644 24.712 41.0324 24.772C41.0044 24.832 40.9904 24.9 40.9904 24.976C40.9904 25.08 41.0184 25.166 41.0744 25.234C41.1344 25.298 41.2144 25.352 41.3144 25.396C41.4144 25.436 41.5264 25.474 41.6504 25.51C41.7744 25.546 41.9004 25.584 42.0284 25.624C42.1604 25.668 42.2904 25.72 42.4184 25.78C42.5464 25.84 42.6604 25.916 42.7604 26.008C42.8604 26.096 42.9404 26.208 43.0004 26.344C43.0604 26.476 43.0904 26.638 43.0904 26.83C43.0904 27.05 43.0484 27.242 42.9644 27.406C42.8804 27.57 42.7664 27.704 42.6224 27.808C42.4784 27.912 42.3184 27.988 42.1424 28.036C41.9664 28.088 41.7884 28.114 41.6084 28.114ZM44.0253 28.06C43.9133 28.06 43.8313 28.042 43.7793 28.006C43.7273 27.974 43.6953 27.93 43.6833 27.874C43.6713 27.818 43.6653 27.756 43.6653 27.688V24.226C43.6653 24.09 43.6913 23.996 43.7433 23.944C43.7993 23.892 43.8993 23.866 44.0433 23.866H46.3833C46.4513 23.866 46.5113 23.874 46.5633 23.89C46.6193 23.902 46.6633 23.934 46.6953 23.986C46.7273 24.034 46.7433 24.116 46.7433 24.232C46.7433 24.344 46.7253 24.426 46.6893 24.478C46.6573 24.53 46.6133 24.562 46.5573 24.574C46.5053 24.586 46.4453 24.592 46.3773 24.592H44.3913V25.6H45.7593C45.8273 25.6 45.8853 25.608 45.9333 25.624C45.9813 25.636 46.0193 25.664 46.0473 25.708C46.0753 25.752 46.0893 25.826 46.0893 25.93C46.0893 26.03 46.0753 26.104 46.0473 26.152C46.0193 26.196 45.9793 26.224 45.9273 26.236C45.8753 26.244 45.8153 26.248 45.7473 26.248H44.3913V27.328H46.3833C46.4513 27.328 46.5113 27.336 46.5633 27.352C46.6193 27.364 46.6633 27.396 46.6953 27.448C46.7273 27.5 46.7433 27.582 46.7433 27.694C46.7433 27.806 46.7253 27.888 46.6893 27.94C46.6573 27.992 46.6133 28.024 46.5573 28.036C46.5053 28.052 46.4453 28.06 46.3773 28.06H44.0253Z" fill="#3B3B3B"/>
<path d="M4.11857 28.15C3.82857 28.15 3.61857 28.105 3.48857 28.015C3.35857 27.935 3.27357 27.825 3.23357 27.685C3.20357 27.545 3.18857 27.395 3.18857 27.235V18.58C3.18857 18.41 3.20357 18.255 3.23357 18.115C3.27357 17.975 3.35357 17.865 3.47357 17.785C3.60357 17.705 3.81357 17.665 4.10357 17.665C4.38357 17.665 4.58357 17.705 4.70357 17.785C4.83357 17.865 4.91357 17.975 4.94357 18.115C4.98357 18.255 5.00357 18.41 5.00357 18.58V26.53H9.57857C9.72857 26.53 9.86357 26.545 9.98357 26.575C10.1036 26.595 10.1986 26.665 10.2686 26.785C10.3386 26.895 10.3736 27.075 10.3736 27.325C10.3736 27.575 10.3386 27.76 10.2686 27.88C10.1986 27.99 10.1036 28.06 9.98357 28.09C9.86357 28.13 9.72857 28.15 9.57857 28.15H4.11857Z" fill="#3B3B3B"/>
</g>
<defs>
<clipPath id="clip0_257_76">
<rect width="50" height="50" fill="white"/>
</clipPath>
</defs>
</svg>
