<svg width="200" height="200" viewBox="0 0 200 200" fill="none" xmlns="http://www.w3.org/2000/svg">
<g clip-path="url(#clip0_257_76)">
<rect width="200" height="200" fill="white"/>
<path d="M49.2484 116.25C48.7818 116.25 48.4401 116.175 48.2234 116.025C48.0068 115.892 47.8734 115.708 47.8234 115.475C47.7734 115.242 47.7484 114.983 47.7484 114.7V100.275C47.7484 99.7083 47.8568 99.3167 48.0734 99.1C48.3068 98.8833 48.7234 98.775 49.3234 98.775H59.0734C59.3568 98.775 59.6068 98.8083 59.8234 98.875C60.0568 98.925 60.2401 99.0583 60.3734 99.275C60.5068 99.475 60.5734 99.8167 60.5734 100.3C60.5734 100.767 60.4984 101.108 60.3484 101.325C60.2151 101.542 60.0318 101.675 59.7984 101.725C59.5818 101.775 59.3318 101.8 59.0484 101.8H50.7734V106H56.4734C56.7568 106 56.9984 106.033 57.1984 106.1C57.3984 106.15 57.5568 106.267 57.6734 106.45C57.7901 106.633 57.8484 106.942 57.8484 107.375C57.8484 107.792 57.7901 108.1 57.6734 108.3C57.5568 108.483 57.3901 108.6 57.1734 108.65C56.9568 108.683 56.7068 108.7 56.4234 108.7H50.7734V113.2H59.0734C59.3568 113.2 59.6068 113.233 59.8234 113.3C60.0568 113.35 60.2401 113.483 60.3734 113.7C60.5068 113.917 60.5734 114.258 60.5734 114.725C60.5734 115.192 60.4984 115.533 60.3484 115.75C60.2151 115.967 60.0318 116.1 59.7984 116.15C59.5818 116.217 59.3318 116.25 59.0484 116.25H49.2484ZM78.7281 114.125C78.8948 114.442 78.9781 114.725 78.9781 114.975C78.9948 115.208 78.9281 115.417 78.7781 115.6C78.6281 115.767 78.3781 115.942 78.0281 116.125C77.4948 116.375 77.0781 116.442 76.7781 116.325C76.4948 116.208 76.2281 115.883 75.9781 115.35L70.4031 103.575L64.8531 115.35C64.6031 115.867 64.3281 116.175 64.0281 116.275C63.7281 116.392 63.3115 116.333 62.7781 116.1C62.4448 115.933 62.1948 115.758 62.0281 115.575C61.8781 115.392 61.8115 115.175 61.8281 114.925C61.8615 114.658 61.9698 114.342 62.1531 113.975L69.0281 99.65C69.1615 99.3833 69.3531 99.175 69.6031 99.025C69.8698 98.8583 70.1448 98.775 70.4281 98.775C70.6281 98.775 70.8115 98.8083 70.9781 98.875C71.1448 98.9417 71.2948 99.0417 71.4281 99.175C71.5781 99.3083 71.7031 99.475 71.8031 99.675L78.7281 114.125ZM65.9531 111.7L67.1531 109.125H73.6781L74.8781 111.7H65.9531ZM82.2795 116.225C81.8128 116.225 81.4712 116.158 81.2545 116.025C81.0545 115.892 80.9212 115.708 80.8545 115.475C80.8045 115.225 80.7795 114.967 80.7795 114.7V100.275C80.7795 100.008 80.8128 99.7667 80.8795 99.55C80.9462 99.3167 81.0795 99.1333 81.2795 99C81.4962 98.85 81.8378 98.775 82.3045 98.775H87.6545C88.4212 98.775 89.1462 98.9 89.8295 99.15C90.5295 99.3833 91.1545 99.75 91.7045 100.25C92.2545 100.733 92.6878 101.35 93.0045 102.1C93.3378 102.833 93.5045 103.692 93.5045 104.675C93.5045 105.325 93.4045 105.975 93.2045 106.625C93.0045 107.258 92.7045 107.85 92.3045 108.4C91.9212 108.933 91.4295 109.392 90.8295 109.775C90.2295 110.158 89.5212 110.408 88.7045 110.525H83.8045V114.725C83.8045 114.992 83.7712 115.242 83.7045 115.475C83.6545 115.708 83.5212 115.892 83.3045 116.025C83.1045 116.158 82.7628 116.225 82.2795 116.225ZM92.9295 115.85C92.4462 116.183 92.0462 116.308 91.7295 116.225C91.4295 116.142 91.1295 115.875 90.8295 115.425L86.6295 109.075L90.0045 108.625L93.3295 113.675C93.5628 114.008 93.7045 114.292 93.7545 114.525C93.8045 114.758 93.7628 114.975 93.6295 115.175C93.4962 115.375 93.2628 115.6 92.9295 115.85ZM83.8045 107.525H88.0295C88.3295 107.525 88.6212 107.475 88.9045 107.375C89.2045 107.258 89.4712 107.083 89.7045 106.85C89.9378 106.6 90.1212 106.3 90.2545 105.95C90.4045 105.583 90.4795 105.15 90.4795 104.65C90.4795 104.05 90.3628 103.542 90.1295 103.125C89.8962 102.692 89.5628 102.367 89.1295 102.15C88.7128 101.917 88.2045 101.8 87.6045 101.8H83.8045V107.525ZM97.4836 116.225C97.0336 116.225 96.7003 116.15 96.4836 116C96.2836 115.867 96.1503 115.683 96.0836 115.45C96.0336 115.217 96.0086 114.967 96.0086 114.7V100.2C96.0086 99.95 96.0419 99.7167 96.1086 99.5C96.1753 99.2833 96.3169 99.1083 96.5336 98.975C96.7669 98.8417 97.1086 98.775 97.5586 98.775C98.0586 98.775 98.4003 98.8333 98.5836 98.95C98.7836 99.05 98.9669 99.2 99.1336 99.4L107.484 111.075V100.2C107.484 99.95 107.517 99.7167 107.584 99.5C107.65 99.2833 107.792 99.1083 108.009 98.975C108.225 98.8417 108.559 98.775 109.009 98.775C109.475 98.775 109.809 98.85 110.009 99C110.225 99.1333 110.359 99.3167 110.409 99.55C110.475 99.7833 110.509 100.042 110.509 100.325V114.725C110.509 114.992 110.467 115.242 110.384 115.475C110.317 115.692 110.167 115.867 109.934 116C109.717 116.15 109.375 116.225 108.909 116.225C108.542 116.225 108.25 116.192 108.034 116.125C107.834 116.058 107.65 115.917 107.484 115.7L99.0086 104.05V114.725C99.0086 114.992 98.9753 115.242 98.9086 115.475C98.8586 115.692 98.7253 115.867 98.5086 116C98.2919 116.15 97.9503 116.225 97.4836 116.225ZM114.866 116.25C114.4 116.25 114.058 116.175 113.841 116.025C113.625 115.892 113.491 115.708 113.441 115.475C113.391 115.242 113.366 114.983 113.366 114.7V100.275C113.366 100.008 113.391 99.7583 113.441 99.525C113.508 99.2917 113.641 99.1083 113.841 98.975C114.058 98.8417 114.408 98.775 114.891 98.775C115.358 98.775 115.691 98.8417 115.891 98.975C116.108 99.1083 116.241 99.2917 116.291 99.525C116.358 99.7583 116.391 100.017 116.391 100.3V114.725C116.391 115.008 116.358 115.267 116.291 115.5C116.241 115.717 116.108 115.892 115.891 116.025C115.675 116.175 115.333 116.25 114.866 116.25ZM122.997 116.225C122.614 116.225 122.289 116.158 122.022 116.025C121.772 115.908 121.581 115.7 121.447 115.4L115.247 100.775C115.031 100.258 114.989 99.875 115.122 99.625C115.256 99.375 115.564 99.125 116.047 98.875C116.381 98.6917 116.672 98.6 116.922 98.6C117.172 98.5833 117.381 98.6583 117.547 98.825C117.731 98.975 117.889 99.225 118.022 99.575L122.972 111.975L127.872 99.7C128.022 99.3667 128.181 99.1083 128.347 98.925C128.514 98.725 128.731 98.625 128.997 98.625C129.264 98.6083 129.581 98.7 129.947 98.9C130.531 99.1833 130.847 99.475 130.897 99.775C130.947 100.075 130.864 100.458 130.647 100.925L124.497 115.4C124.381 115.65 124.189 115.85 123.922 116C123.656 116.15 123.347 116.225 122.997 116.225ZM135.137 116.25C134.67 116.25 134.329 116.175 134.112 116.025C133.895 115.892 133.762 115.708 133.712 115.475C133.662 115.242 133.637 114.983 133.637 114.7V100.275C133.637 99.7083 133.745 99.3167 133.962 99.1C134.195 98.8833 134.612 98.775 135.212 98.775H144.962C145.245 98.775 145.495 98.8083 145.712 98.875C145.945 98.925 146.129 99.0583 146.262 99.275C146.395 99.475 146.462 99.8167 146.462 100.3C146.462 100.767 146.387 101.108 146.237 101.325C146.104 101.542 145.92 101.675 145.687 101.725C145.47 101.775 145.22 101.8 144.937 101.8H136.662V106H142.362C142.645 106 142.887 106.033 143.087 106.1C143.287 106.15 143.445 106.267 143.562 106.45C143.679 106.633 143.737 106.942 143.737 107.375C143.737 107.792 143.679 108.1 143.562 108.3C143.445 108.483 143.279 108.6 143.062 108.65C142.845 108.683 142.595 108.7 142.312 108.7H136.662V113.2H144.962C145.245 113.2 145.495 113.233 145.712 113.3C145.945 113.35 146.129 113.483 146.262 113.7C146.395 113.917 146.462 114.258 146.462 114.725C146.462 115.192 146.387 115.533 146.237 115.75C146.104 115.967 145.92 116.1 145.687 116.15C145.47 116.217 145.22 116.25 144.937 116.25H135.137ZM150.517 116.225C150.05 116.225 149.708 116.158 149.492 116.025C149.292 115.892 149.158 115.708 149.092 115.475C149.042 115.225 149.017 114.967 149.017 114.7V100.275C149.017 100.008 149.05 99.7667 149.117 99.55C149.183 99.3167 149.317 99.1333 149.517 99C149.733 98.85 150.075 98.775 150.542 98.775H155.892C156.658 98.775 157.383 98.9 158.067 99.15C158.767 99.3833 159.392 99.75 159.942 100.25C160.492 100.733 160.925 101.35 161.242 102.1C161.575 102.833 161.742 103.692 161.742 104.675C161.742 105.325 161.642 105.975 161.442 106.625C161.242 107.258 160.942 107.85 160.542 108.4C160.158 108.933 159.667 109.392 159.067 109.775C158.467 110.158 157.758 110.408 156.942 110.525H152.042V114.725C152.042 114.992 152.008 115.242 151.942 115.475C151.892 115.708 151.758 115.892 151.542 116.025C151.342 116.158 151 116.225 150.517 116.225ZM161.167 115.85C160.683 116.183 160.283 116.308 159.967 116.225C159.667 116.142 159.367 115.875 159.067 115.425L154.867 109.075L158.242 108.625L161.567 113.675C161.8 114.008 161.942 114.292 161.992 114.525C162.042 114.758 162 114.975 161.867 115.175C161.733 115.375 161.5 115.6 161.167 115.85ZM152.042 107.525H156.267C156.567 107.525 156.858 107.475 157.142 107.375C157.442 107.258 157.708 107.083 157.942 106.85C158.175 106.6 158.358 106.3 158.492 105.95C158.642 105.583 158.717 105.15 158.717 104.65C158.717 104.05 158.6 103.542 158.367 103.125C158.133 102.692 157.8 102.367 157.367 102.15C156.95 101.917 156.442 101.8 155.842 101.8H152.042V107.525ZM169.452 116.475C168.702 116.475 168.018 116.383 167.402 116.2C166.802 116.017 166.268 115.783 165.802 115.5C165.352 115.217 164.968 114.925 164.652 114.625C164.335 114.325 164.102 114.05 163.952 113.8C163.735 113.5 163.593 113.233 163.527 113C163.46 112.767 163.477 112.542 163.577 112.325C163.693 112.092 163.902 111.85 164.202 111.6C164.502 111.333 164.777 111.2 165.027 111.2C165.293 111.183 165.543 111.258 165.777 111.425C166.027 111.592 166.268 111.825 166.502 112.125C166.902 112.658 167.352 113.042 167.852 113.275C168.352 113.492 168.852 113.6 169.352 113.6C170.002 113.6 170.568 113.517 171.052 113.35C171.535 113.167 171.91 112.9 172.177 112.55C172.46 112.2 172.602 111.75 172.602 111.2C172.602 110.75 172.46 110.383 172.177 110.1C171.91 109.8 171.552 109.55 171.102 109.35C170.652 109.133 170.143 108.942 169.577 108.775C169.027 108.592 168.468 108.392 167.902 108.175C167.502 108.042 167.102 107.883 166.702 107.7C166.302 107.5 165.927 107.275 165.577 107.025C165.243 106.775 164.943 106.483 164.677 106.15C164.427 105.8 164.227 105.4 164.077 104.95C163.927 104.5 163.852 103.975 163.852 103.375C163.852 102.425 164.085 101.592 164.552 100.875C165.018 100.142 165.668 99.5667 166.502 99.15C167.335 98.7167 168.285 98.5 169.352 98.5C170.035 98.5 170.643 98.5667 171.177 98.7C171.727 98.8167 172.193 98.975 172.577 99.175C172.977 99.3583 173.302 99.55 173.552 99.75C173.818 99.9333 174.01 100.092 174.127 100.225C174.51 100.608 174.718 100.933 174.752 101.2C174.802 101.45 174.652 101.792 174.302 102.225C173.952 102.675 173.61 102.925 173.277 102.975C172.96 103.008 172.602 102.875 172.202 102.575C171.935 102.292 171.668 102.067 171.402 101.9C171.135 101.717 170.835 101.583 170.502 101.5C170.185 101.417 169.793 101.375 169.327 101.375C168.993 101.375 168.668 101.425 168.352 101.525C168.052 101.608 167.793 101.742 167.577 101.925C167.36 102.092 167.185 102.3 167.052 102.55C166.935 102.8 166.877 103.083 166.877 103.4C166.877 103.833 166.993 104.192 167.227 104.475C167.477 104.742 167.81 104.967 168.227 105.15C168.643 105.317 169.11 105.475 169.627 105.625C170.143 105.775 170.668 105.933 171.202 106.1C171.752 106.283 172.293 106.5 172.827 106.75C173.36 107 173.835 107.317 174.252 107.7C174.668 108.067 175.002 108.533 175.252 109.1C175.502 109.65 175.627 110.325 175.627 111.125C175.627 112.042 175.452 112.842 175.102 113.525C174.752 114.208 174.277 114.767 173.677 115.2C173.077 115.633 172.41 115.95 171.677 116.15C170.943 116.367 170.202 116.475 169.452 116.475ZM179.522 116.25C179.055 116.25 178.714 116.175 178.497 116.025C178.28 115.892 178.147 115.708 178.097 115.475C178.047 115.242 178.022 114.983 178.022 114.7V100.275C178.022 99.7083 178.13 99.3167 178.347 99.1C178.58 98.8833 178.997 98.775 179.597 98.775H189.347C189.63 98.775 189.88 98.8083 190.097 98.875C190.33 98.925 190.514 99.0583 190.647 99.275C190.78 99.475 190.847 99.8167 190.847 100.3C190.847 100.767 190.772 101.108 190.622 101.325C190.489 101.542 190.305 101.675 190.072 101.725C189.855 101.775 189.605 101.8 189.322 101.8H181.047V106H186.747C187.03 106 187.272 106.033 187.472 106.1C187.672 106.15 187.83 106.267 187.947 106.45C188.064 106.633 188.122 106.942 188.122 107.375C188.122 107.792 188.064 108.1 187.947 108.3C187.83 108.483 187.664 108.6 187.447 108.65C187.23 108.683 186.98 108.7 186.697 108.7H181.047V113.2H189.347C189.63 113.2 189.88 113.233 190.097 113.3C190.33 113.35 190.514 113.483 190.647 113.7C190.78 113.917 190.847 114.258 190.847 114.725C190.847 115.192 190.772 115.533 190.622 115.75C190.489 115.967 190.305 116.1 190.072 116.15C189.855 116.217 189.605 116.25 189.322 116.25H179.522Z" fill="#3B3B3B"/>
<path d="M13.8867 116.7C12.5333 116.7 11.5533 116.49 10.9467 116.07C10.34 115.697 9.94335 115.183 9.75668 114.53C9.61668 113.877 9.54668 113.177 9.54668 112.43V72.04C9.54668 71.2467 9.61668 70.5233 9.75668 69.87C9.94335 69.2167 10.3167 68.7033 10.8767 68.33C11.4833 67.9567 12.4633 67.77 13.8167 67.77C15.1233 67.77 16.0567 67.9567 16.6167 68.33C17.2233 68.7033 17.5967 69.2167 17.7367 69.87C17.9233 70.5233 18.0167 71.2467 18.0167 72.04V109.14H39.3667C40.0667 109.14 40.6967 109.21 41.2567 109.35C41.8167 109.443 42.26 109.77 42.5867 110.33C42.9133 110.843 43.0767 111.683 43.0767 112.85C43.0767 114.017 42.9133 114.88 42.5867 115.44C42.26 115.953 41.8167 116.28 41.2567 116.42C40.6967 116.607 40.0667 116.7 39.3667 116.7H13.8867Z" fill="#3B3B3B"/>
</g>
<defs>
<clipPath id="clip0_257_76">
<rect width="200" height="200" fill="white"/>
</clipPath>
</defs>
</svg>
