<svg width="45" height="45" viewBox="0 0 45 45" fill="none" xmlns="http://www.w3.org/2000/svg">
<path d="M26.875 12.8334V23.0417H12.5395L10.8333 24.7479V12.8334H26.875ZM28.3333 9.91669H9.37496C8.57288 9.91669 7.91663 10.5729 7.91663 11.375V31.7917L13.75 25.9584H28.3333C29.1354 25.9584 29.7916 25.3021 29.7916 24.5V11.375C29.7916 10.5729 29.1354 9.91669 28.3333 9.91669ZM35.625 15.75H32.7083V28.875H13.75V31.7917C13.75 32.5938 14.4062 33.25 15.2083 33.25H31.25L37.0833 39.0834V17.2084C37.0833 16.4063 36.427 15.75 35.625 15.75Z" fill="#3B3B3B"/>
<rect x="10" y="12" width="19" height="13" fill="#3B3B3B"/>
<path d="M18.3179 18.7395C18.8819 17.7884 19.9659 17.2274 20.5958 16.3858C21.2623 15.5032 20.8888 13.8542 18.9991 13.8542C17.7613 13.8542 17.1534 14.73 16.897 15.4553L15 14.7095C15.52 13.2521 16.9336 12 18.9918 12C20.713 12 21.8922 12.7321 22.4928 13.6489C23.0055 14.4358 23.3058 15.9068 22.5148 17.0016C21.6359 18.2126 20.7936 18.5821 20.3395 19.3621C20.1564 19.6768 20.0831 19.8821 20.0831 20.8947H17.9664C17.959 20.3611 17.8712 19.4921 18.3179 18.7395ZM20.464 23.6316C20.464 24.3842 19.8048 25 18.9991 25C18.1934 25 17.5342 24.3842 17.5342 23.6316C17.5342 22.8789 18.1934 22.2632 18.9991 22.2632C19.8048 22.2632 20.464 22.8789 20.464 23.6316Z" fill="white"/>
</svg>
