<svg width="35" height="35" viewBox="0 0 35 35" fill="none" xmlns="http://www.w3.org/2000/svg">
<path d="M22.976 20.7886H21.824L21.4156 20.3948C22.8448 18.7323 23.7052 16.574 23.7052 14.2261C23.7052 8.99064 19.4615 4.74689 14.226 4.74689C8.99062 4.74689 4.74687 8.99064 4.74687 14.2261C4.74687 19.4615 8.99062 23.7052 14.226 23.7052C16.574 23.7052 18.7323 22.8448 20.3948 21.4156L20.7885 21.824V22.9761L28.0802 30.2531L30.2531 28.0802L22.976 20.7886ZM14.226 20.7886C10.5948 20.7886 7.66354 17.8573 7.66354 14.2261C7.66354 10.5948 10.5948 7.66355 14.226 7.66355C17.8573 7.66355 20.7885 10.5948 20.7885 14.2261C20.7885 17.8573 17.8573 20.7886 14.226 20.7886Z" fill="white"/>
</svg>
