<svg width="35" height="35" viewBox="0 0 35 35" fill="none" xmlns="http://www.w3.org/2000/svg">
<path d="M13.125 20.0521C9.7125 20.0521 2.91667 21.7583 2.91667 25.1562V27.7083H23.3333V25.1562C23.3333 21.7583 16.5375 20.0521 13.125 20.0521ZM6.32917 24.7917C7.55417 23.9458 10.5146 22.9687 13.125 22.9687C15.7354 22.9687 18.6958 23.9458 19.9208 24.7917H6.32917ZM13.125 17.5C15.9396 17.5 18.2292 15.2104 18.2292 12.3958C18.2292 9.58124 15.9396 7.29166 13.125 7.29166C10.3104 7.29166 8.02083 9.58124 8.02083 12.3958C8.02083 15.2104 10.3104 17.5 13.125 17.5ZM13.125 10.2083C14.3354 10.2083 15.3125 11.1854 15.3125 12.3958C15.3125 13.6062 14.3354 14.5833 13.125 14.5833C11.9146 14.5833 10.9375 13.6062 10.9375 12.3958C10.9375 11.1854 11.9146 10.2083 13.125 10.2083ZM23.3917 20.1396C25.0833 21.3646 26.25 22.9979 26.25 25.1562V27.7083H32.0833V25.1562C32.0833 22.2104 26.9792 20.5333 23.3917 20.1396ZM21.875 17.5C24.6896 17.5 26.9792 15.2104 26.9792 12.3958C26.9792 9.58124 24.6896 7.29166 21.875 7.29166C21.0875 7.29166 20.3583 7.48124 19.6875 7.80207C20.6063 9.09999 21.1458 10.6896 21.1458 12.3958C21.1458 14.1021 20.6063 15.6917 19.6875 16.9896C20.3583 17.3104 21.0875 17.5 21.875 17.5Z" fill="white"/>
</svg>
